<svg width="24" height="24" viewBox="0 0 24 24" fill="none" xmlns="http://www.w3.org/2000/svg">
<path d="M8.5714 16.1657C7.85396 16.7805 6.94467 17.126 5.99997 17.1428C5.30811 17.2092 4.61012 17.1217 3.95601 16.8868C3.30189 16.6518 2.70783 16.2751 2.21636 15.7836C1.72489 15.2921 1.34818 14.698 1.11319 14.0439C0.878201 13.3898 0.857117 12 0.857117 12C0.857117 12 0.878201 10.6101 1.11319 9.95601C1.34818 9.30189 1.72489 8.70782 2.21636 8.21635C2.70783 7.72488 3.30189 7.34817 3.95601 7.11319C4.61012 6.87819 5.30811 6.79075 5.99997 6.85711C10.7143 6.85711 13.2857 17.1428 18 17.1428C18.6919 17.2092 19.3897 17.1217 20.0439 16.8868C20.6981 16.6518 21.2921 16.2751 21.7836 15.7836C22.2751 15.2921 22.6517 14.698 22.8867 14.0439C23.1217 13.3898 23.1428 12 23.1428 12C23.1428 12 23.1217 10.6101 22.8867 9.95601C22.6517 9.30189 22.2751 8.70782 21.7836 8.21635C21.2921 7.72488 20.6981 7.34817 20.0439 7.11319C19.3897 6.87819 18.6919 6.79075 18 6.85711C17.085 6.89338 16.209 7.23771 15.5143 7.83425" stroke="#4147D5" stroke-width="1.71429" stroke-linecap="round" stroke-linejoin="round"/>
</svg>
