<svg width="24" height="24" viewBox="0 0 24 24" fill="none" xmlns="http://www.w3.org/2000/svg">
<g clip-path="url(#clip0_2_217)">
<path fill-rule="evenodd" clip-rule="evenodd" d="M23.1428 12C23.1428 18.1541 18.1541 23.1429 12 23.1429C5.84595 23.1429 0.857117 18.1541 0.857117 12C0.857117 5.84597 5.84595 0.85714 12 0.85714C18.1541 0.85714 23.1428 5.84597 23.1428 12ZM6.85712 13.2345L12 18.0002L17.1428 13.2345C20.0228 10.423 15.8743 4.97161 12 9.36017C8.12569 4.97161 3.97712 10.423 6.85712 13.2345Z" fill="#D7E0FF"/>
<path d="M12 23.1429C18.1541 23.1429 23.1428 18.1541 23.1428 12C23.1428 5.84597 18.1541 0.85714 12 0.85714C5.84595 0.85714 0.857117 5.84597 0.857117 12C0.857117 18.1541 5.84595 23.1429 12 23.1429Z" stroke="#4147D5" stroke-width="1.71429" stroke-linecap="round" stroke-linejoin="round"/>
<path d="M12 18.0002L6.85714 13.2345C3.97714 10.423 8.12571 4.97161 12 9.36019C15.8743 4.97161 20.0229 10.423 17.1429 13.2345L12 18.0002Z" fill="white"/>
<path d="M12 18.0002L6.85714 13.2345C3.97714 10.423 8.12571 4.97161 12 9.36019C15.8743 4.97161 20.0229 10.423 17.1429 13.2345L12 18.0002Z" stroke="#4147D5" stroke-width="1.71429" stroke-linecap="round" stroke-linejoin="round"/>
</g>
<defs>
<clipPath id="clip0_2_217">
<rect width="24" height="24" fill="white"/>
</clipPath>
</defs>
</svg>
