<svg width="24" height="24" viewBox="0 0 24 24" fill="none" xmlns="http://www.w3.org/2000/svg">
<path d="M6.85719 23.1428L6.85715 21.4285C3.87784 20.2405 3.57988 17.5748 3.8253 15.3628C3.9278 14.4389 4.42988 13.719 5.1429 13.2925V2.99997C5.1429 1.8165 6.1023 0.857117 7.28576 0.857117C8.46923 0.857117 9.42861 1.8165 9.42861 2.99997V10.2857C12.2403 9.88038 12.8715 9.99462 15.4286 11.1428V6.42855C15.4286 5.24507 16.388 4.28569 17.5714 4.28569C18.755 4.28569 19.7143 5.24507 19.7143 6.42855V16.0168C19.7143 17.8354 18.9919 19.5795 17.7058 20.8656L17.1429 21.4285V23.1428H6.85719Z" fill="#D7E0FF"/>
<path d="M6.85719 23.1428L6.85715 21.4285C3.87784 20.2405 3.57988 17.5748 3.8253 15.3628C3.99548 13.8289 5.26719 12.8571 6.77696 12.8571C8.19277 12.8571 11.0618 12.8629 11.0618 12.8629C12.1436 12.9464 12.9291 13.9334 12.8263 14.9976C12.668 16.6375 10.7308 16.8138 9.42858 17.1428C10.4277 17.6038 12.3886 18.8758 12.2392 20.2764" stroke="#4147D5" stroke-width="1.71429" stroke-linecap="round" stroke-linejoin="round"/>
<path d="M17.1429 23.1428V21.4285L17.7059 20.8656C18.9919 19.5795 19.7143 17.8354 19.7143 16.0168V6.42855C19.7143 5.24507 18.755 4.28569 17.5715 4.28569C16.388 4.28569 15.4286 5.24507 15.4286 6.42855V11.1428C12.8715 9.99462 12.2403 9.88038 9.4286 10.2857V2.99997C9.4286 1.8165 8.46921 0.857117 7.28574 0.857117C6.10227 0.857117 5.14288 1.8165 5.14288 2.99997V13.2501" stroke="#4147D5" stroke-width="1.71429" stroke-linecap="round" stroke-linejoin="round"/>
</svg>
