<svg width="24" height="24" viewBox="0 0 24 24" fill="none" xmlns="http://www.w3.org/2000/svg">
<g clip-path="url(#clip0_2_108)">
<path d="M12.3972 22.4993C13.4091 22.0801 14.3284 21.4657 15.1029 20.6914L19.5257 16.2685L15.7629 12.5057L12 16.2685C11.4174 16.7424 10.6798 16.9833 9.92987 16.9448C9.1799 16.9063 8.47086 16.5911 7.93986 16.0601C7.40886 15.5291 7.09364 14.8201 7.05513 14.0701C7.01663 13.3201 7.25761 12.5825 7.73144 12L11.4899 8.23273L7.73144 4.47424L3.30858 8.8971C1.74457 10.4611 0.865906 12.5824 0.865906 14.7942C0.865906 17.0061 1.74457 19.1273 3.30858 20.6914C4.87261 22.2553 6.99387 23.1341 9.20572 23.1341C10.3009 23.1341 11.3854 22.9183 12.3972 22.4993Z" fill="#D7E0FF"/>
<path d="M23.1427 12.6513L19.3713 8.89703L15.7542 12.5315L19.5084 16.2858L23.1427 12.6513Z" fill="white"/>
<path d="M15.1029 4.6114L11.3486 0.857117L7.71429 4.49161L11.4686 8.24589L15.1029 4.6114Z" fill="white"/>
<path d="M15.1029 20.6914C14.3285 21.4657 13.4091 22.0801 12.3972 22.4993C11.3854 22.9184 10.3009 23.1341 9.20572 23.1341C6.99387 23.1341 4.87261 22.2553 3.30858 20.6914C1.74457 19.1275 0.865906 17.0061 0.865906 14.7943C0.865906 12.5824 1.74457 10.4611 3.30858 8.89712L11.3486 0.857117L15.1029 4.6114L7.73144 12C7.25761 12.5826 7.01663 13.3201 7.05513 14.0701C7.09364 14.8201 7.40886 15.5291 7.93986 16.0601C8.47086 16.5911 9.17991 16.9063 9.92987 16.9448C10.6798 16.9834 11.4174 16.7424 12 16.2685L19.3714 8.89712L23.1428 12.6514L15.1029 20.6914Z" stroke="#4147D5" stroke-width="1.71" stroke-linecap="round" stroke-linejoin="round"/>
<path d="M15.7542 12.5316L19.5084 16.2858" stroke="#4147D5" stroke-width="1.71" stroke-linecap="round" stroke-linejoin="round"/>
<path d="M7.71429 4.49146L11.4686 8.24574" stroke="#4147D5" stroke-width="1.71" stroke-linecap="round" stroke-linejoin="round"/>
</g>
<defs>
<clipPath id="clip0_2_108">
<rect width="24" height="24" fill="white"/>
</clipPath>
</defs>
</svg>
