<svg width="24" height="25" viewBox="0 0 24 25" fill="none" xmlns="http://www.w3.org/2000/svg">
<g clip-path="url(#clip0_2_150)">
<path fill-rule="evenodd" clip-rule="evenodd" d="M14.5715 3.92857H1.71432C1.24093 3.92857 0.857178 4.31233 0.857178 4.78572V18.5C0.857178 18.9733 1.24093 19.3571 1.71432 19.3571H22.2857C22.7591 19.3571 23.1429 18.9733 23.1429 18.5V11.6429C23.1429 12.5896 22.3754 13.3571 21.4286 13.3571H16.2857C15.339 13.3571 14.5715 12.5896 14.5715 11.6429V3.92857Z" fill="white"/>
<path d="M21.4286 1.35715H16.2857C15.3389 1.35715 14.5714 2.12466 14.5714 3.07143V11.6429C14.5714 12.5896 15.3389 13.3571 16.2857 13.3571H21.4286C22.3754 13.3571 23.1428 12.5896 23.1428 11.6429V3.07143C23.1428 2.12466 22.3754 1.35715 21.4286 1.35715Z" fill="#D7E0FF"/>
<path d="M15.4286 23.6429L13.7143 19.3571H10.2857L8.57141 23.6429H15.4286Z" fill="#D7E0FF"/>
<path d="M23.1429 17.6429V18.5C23.1429 18.7273 23.0525 18.9454 22.8919 19.1062C22.7311 19.2668 22.5131 19.3571 22.2857 19.3571H1.71432C1.48699 19.3571 1.26897 19.2668 1.10823 19.1062C0.947483 18.9454 0.857178 18.7273 0.857178 18.5V4.78572C0.857178 4.55839 0.947483 4.34036 1.10823 4.17963C1.26897 4.01888 1.48699 3.92857 1.71432 3.92857H10.2857" stroke="#4147D5" stroke-width="1.71429" stroke-linecap="round" stroke-linejoin="round"/>
<path d="M10.2857 19.3571L8.57141 23.6429" stroke="#4147D5" stroke-width="1.71429" stroke-linecap="round" stroke-linejoin="round"/>
<path d="M13.7142 19.3571L15.4285 23.6429" stroke="#4147D5" stroke-width="1.71429" stroke-linecap="round" stroke-linejoin="round"/>
<path d="M6.85718 23.6429H17.1429" stroke="#4147D5" stroke-width="1.71429" stroke-linecap="round" stroke-linejoin="round"/>
<path d="M21.4286 1.35715H16.2857C15.3389 1.35715 14.5714 2.12466 14.5714 3.07143V11.6429C14.5714 12.5896 15.3389 13.3571 16.2857 13.3571H21.4286C22.3754 13.3571 23.1428 12.5896 23.1428 11.6429V3.07143C23.1428 2.12466 22.3754 1.35715 21.4286 1.35715Z" stroke="#4147D5" stroke-width="1.71429" stroke-linecap="round" stroke-linejoin="round"/>
<path d="M18.4286 9.92857H19.2857" stroke="#4147D5" stroke-width="1.71429" stroke-linecap="round" stroke-linejoin="round"/>
</g>
<defs>
<clipPath id="clip0_2_150">
<rect width="24" height="24" fill="white" transform="translate(0 0.5)"/>
</clipPath>
</defs>
</svg>
