<svg width="24" height="24" viewBox="0 0 24 24" fill="none" xmlns="http://www.w3.org/2000/svg">
<g clip-path="url(#clip0_2_191)">
<path d="M22.2857 11.1429H15.4286C14.9552 11.1429 14.5714 11.5266 14.5714 12V22.2857C14.5714 22.759 14.9552 23.1429 15.4286 23.1429H22.2857C22.759 23.1429 23.1428 22.759 23.1428 22.2857V12C23.1428 11.5266 22.759 11.1429 22.2857 11.1429Z" fill="#D7E0FF"/>
<path d="M22.2857 0.85714H15.4286C14.9552 0.85714 14.5714 1.2409 14.5714 1.71428V5.16C14.5714 5.63338 14.9552 6.01714 15.4286 6.01714H22.2857C22.759 6.01714 23.1428 5.63338 23.1428 5.16V1.71428C23.1428 1.2409 22.759 0.85714 22.2857 0.85714Z" fill="#D7E0FF"/>
<path d="M8.57146 0.85714H1.71432C1.24093 0.85714 0.857178 1.2409 0.857178 1.71428V12C0.857178 12.4734 1.24093 12.8571 1.71432 12.8571H8.57146C9.04485 12.8571 9.42861 12.4734 9.42861 12V1.71428C9.42861 1.2409 9.04485 0.85714 8.57146 0.85714Z" fill="#D7E0FF"/>
<path d="M8.57146 17.9829H1.71432C1.24093 17.9829 0.857178 18.3667 0.857178 18.84V22.2857C0.857178 22.759 1.24093 23.1429 1.71432 23.1429H8.57146C9.04485 23.1429 9.42861 22.759 9.42861 22.2857V18.84C9.42861 18.3667 9.04485 17.9829 8.57146 17.9829Z" fill="#D7E0FF"/>
<path d="M22.2857 11.1429H15.4286C14.9552 11.1429 14.5714 11.5266 14.5714 12V22.2857C14.5714 22.759 14.9552 23.1429 15.4286 23.1429H22.2857C22.759 23.1429 23.1428 22.759 23.1428 22.2857V12C23.1428 11.5266 22.759 11.1429 22.2857 11.1429Z" stroke="#4147D5" stroke-width="1.71429" stroke-linecap="round" stroke-linejoin="round"/>
<path d="M22.2857 0.85714H15.4286C14.9552 0.85714 14.5714 1.2409 14.5714 1.71428V5.16C14.5714 5.63338 14.9552 6.01714 15.4286 6.01714H22.2857C22.759 6.01714 23.1428 5.63338 23.1428 5.16V1.71428C23.1428 1.2409 22.759 0.85714 22.2857 0.85714Z" stroke="#4147D5" stroke-width="1.71429" stroke-linecap="round" stroke-linejoin="round"/>
<path d="M8.57146 0.85714H1.71432C1.24093 0.85714 0.857178 1.2409 0.857178 1.71428V12C0.857178 12.4734 1.24093 12.8571 1.71432 12.8571H8.57146C9.04485 12.8571 9.42861 12.4734 9.42861 12V1.71428C9.42861 1.2409 9.04485 0.85714 8.57146 0.85714Z" stroke="#4147D5" stroke-width="1.71429" stroke-linecap="round" stroke-linejoin="round"/>
<path d="M8.57146 17.9829H1.71432C1.24093 17.9829 0.857178 18.3665 0.857178 18.84V22.2857C0.857178 22.759 1.24093 23.1429 1.71432 23.1429H8.57146C9.04485 23.1429 9.42861 22.759 9.42861 22.2857V18.84C9.42861 18.3665 9.04485 17.9829 8.57146 17.9829Z" stroke="#4147D5" stroke-width="1.71429" stroke-linecap="round" stroke-linejoin="round"/>
</g>
<defs>
<clipPath id="clip0_2_191">
<rect width="24" height="24" fill="white"/>
</clipPath>
</defs>
</svg>
