<svg width="24" height="24" viewBox="0 0 24 24" fill="none" xmlns="http://www.w3.org/2000/svg">
<g clip-path="url(#clip0_85_1144)">
<path fill-rule="evenodd" clip-rule="evenodd" d="M2.5714 0.857117H21.4285C22.3753 0.857117 23.1428 1.62463 23.1428 2.5714V21.4285C23.1428 22.3753 22.3753 23.1428 21.4285 23.1428H2.5714C1.62463 23.1428 0.857117 22.3753 0.857117 21.4285V2.5714C0.857117 1.62463 1.62463 0.857117 2.5714 0.857117ZM15.4285 11.1428L18.8571 8.5714V13.7143C18.8571 14.3962 18.5863 15.0503 18.104 15.5325C17.6218 16.0148 16.9677 16.2857 16.2857 16.2857H7.71426C7.03228 16.2857 6.37821 16.0148 5.89599 15.5325C5.41376 15.0503 5.14283 14.3962 5.14283 13.7143V8.5714L8.5714 11.1428L12 7.71426L15.4285 11.1428Z" fill="#D7E0FF"/>
<path d="M18.8572 8.57144L15.4286 11.1429L12 7.71429L8.57145 11.1429L5.14288 8.57144V13.7143C5.14288 14.3963 5.41381 15.0503 5.89604 15.5326C6.37827 16.0148 7.03233 16.2857 7.71431 16.2857H16.2857C16.9677 16.2857 17.6219 16.0148 18.1041 15.5326C18.5863 15.0503 18.8572 14.3963 18.8572 13.7143V8.57144Z" fill="white"/>
<path d="M18.8572 8.57144L15.4286 11.1429L12 7.71429L8.57145 11.1429L5.14288 8.57144V13.7143C5.14288 14.3963 5.41381 15.0503 5.89604 15.5326C6.37827 16.0148 7.03233 16.2857 7.71431 16.2857H16.2857C16.9677 16.2857 17.6219 16.0148 18.1041 15.5326C18.5863 15.0503 18.8572 14.3963 18.8572 13.7143V8.57144Z" stroke="#4147D5" stroke-width="1.71429" stroke-linecap="round" stroke-linejoin="round"/>
<path d="M21.4285 0.857117H2.5714C1.62463 0.857117 0.857117 1.62463 0.857117 2.5714V21.4285C0.857117 22.3753 1.62463 23.1428 2.5714 23.1428H21.4285C22.3753 23.1428 23.1428 22.3753 23.1428 21.4285V2.5714C23.1428 1.62463 22.3753 0.857117 21.4285 0.857117Z" stroke="#4147D5" stroke-width="1.71429" stroke-linecap="round" stroke-linejoin="round"/>
</g>
<defs>
<clipPath id="clip0_85_1144">
<rect width="24" height="24" fill="white"/>
</clipPath>
</defs>
</svg>
