<svg width="24" height="24" viewBox="0 0 24 24" fill="none" xmlns="http://www.w3.org/2000/svg">
<g clip-path="url(#clip0_85_1138)">
<path d="M21.6685 3.20579L20.2285 7.4572C20.1788 7.55553 20.1529 7.66417 20.1529 7.77436C20.1529 7.88454 20.1788 7.99317 20.2285 8.09151L22.92 11.6915C22.9973 11.7945 23.0441 11.9173 23.0549 12.0457C23.0657 12.1741 23.0401 12.3029 22.981 12.4174C22.922 12.5319 22.8319 12.6275 22.7211 12.6931C22.6102 12.7588 22.4832 12.7919 22.3543 12.7886H17.8628C17.7528 12.7919 17.6448 12.8197 17.5469 12.8702C17.449 12.9206 17.3636 12.9923 17.2971 13.0801L14.7943 16.6801C14.7209 16.7853 14.6194 16.8678 14.5015 16.9183C14.3835 16.9687 14.2537 16.985 14.1269 16.9654C14.0001 16.9457 13.8814 16.8909 13.7842 16.8071C13.687 16.7234 13.6153 16.614 13.5772 16.4915L12.24 12.2058C12.2095 12.0998 12.1526 12.0034 12.0747 11.9254C11.9967 11.8475 11.9002 11.7906 11.7943 11.7601L7.50859 10.4229C7.38607 10.3848 7.27672 10.3131 7.19294 10.2159C7.10916 10.1187 7.05434 9.99997 7.03469 9.87316C7.01505 9.74637 7.03139 9.6166 7.08182 9.49863C7.13225 9.38065 7.21478 9.2792 7.32002 9.20579L10.9886 6.6172C11.0763 6.55067 11.1481 6.46532 11.1985 6.36741C11.2489 6.26953 11.2768 6.16158 11.28 6.05151V1.56007C11.2848 1.4421 11.32 1.32737 11.3821 1.22697C11.4442 1.12658 11.5312 1.04394 11.6347 0.987041C11.7382 0.930142 11.8545 0.900919 11.9726 0.902201C12.0907 0.903482 12.2064 0.935225 12.3086 0.994354L15.9086 3.68579C16 3.74925 16.1051 3.79012 16.2154 3.80504C16.3257 3.81993 16.4379 3.80843 16.5429 3.77151L20.7943 2.33151C20.9161 2.28865 21.0478 2.28112 21.1738 2.3098C21.2998 2.33847 21.4152 2.40217 21.5065 2.49354C21.5979 2.58493 21.6617 2.70028 21.6903 2.8263C21.7189 2.9523 21.7114 3.08385 21.6685 3.20579Z" fill="#D7E0FF"/>
<path d="M21.6685 3.20553L20.2285 7.45696C20.1788 7.55529 20.1529 7.66393 20.1529 7.77411C20.1529 7.88428 20.1788 7.99293 20.2285 8.09125L22.92 11.6912C22.9973 11.7943 23.0441 11.917 23.0549 12.0454C23.0657 12.1738 23.0401 12.3026 22.981 12.4172C22.922 12.5317 22.8319 12.6272 22.7211 12.6929C22.6102 12.7585 22.4832 12.7916 22.3543 12.7884H17.8628C17.7528 12.7916 17.6448 12.8195 17.5469 12.8699C17.449 12.9204 17.3636 12.9921 17.2971 13.0798L14.7943 16.6798C14.7209 16.7851 14.6194 16.8676 14.5015 16.918C14.3835 16.9685 14.2537 16.9848 14.1269 16.9651C14.0001 16.9455 13.8814 16.8907 13.7842 16.8069C13.687 16.7231 13.6153 16.6138 13.5772 16.4912L12.24 12.2055C12.2095 12.0996 12.1526 12.0031 12.0747 11.9252C11.9967 11.8472 11.9002 11.7903 11.7943 11.7598L7.50859 10.4227C7.38607 10.3846 7.27672 10.3128 7.19294 10.2156C7.10916 10.1185 7.05434 9.99971 7.03469 9.87292C7.01505 9.74613 7.03139 9.61636 7.08182 9.49839C7.13225 9.38041 7.21478 9.27894 7.32002 9.20553L10.9886 6.61696C11.0763 6.55043 11.1481 6.46508 11.1985 6.36717C11.2489 6.26929 11.2768 6.16132 11.28 6.05125V1.55982C11.2848 1.44186 11.32 1.32712 11.3821 1.22673C11.4442 1.12634 11.5312 1.04369 11.6347 0.986797C11.7382 0.929898 11.8545 0.900675 11.9726 0.901957C12.0907 0.903238 12.2064 0.934979 12.3086 0.99411L15.9086 3.68553C16 3.74901 16.1051 3.78988 16.2154 3.80478C16.3257 3.81969 16.4379 3.80819 16.5429 3.77125L20.7943 2.33125C20.9161 2.28841 21.0478 2.28088 21.1738 2.30955C21.2998 2.33823 21.4152 2.40193 21.5065 2.4933C21.5979 2.58469 21.6617 2.70004 21.6903 2.82604C21.7189 2.95206 21.7114 3.08361 21.6685 3.20553Z" stroke="#4147D5" stroke-width="1.71429" stroke-linecap="round" stroke-linejoin="round"/>
<path d="M12.0685 11.9313L0.857117 23.1428" stroke="#4147D5" stroke-width="1.71429" stroke-linecap="round" stroke-linejoin="round"/>
</g>
<defs>
<clipPath id="clip0_85_1138">
<rect width="24" height="24" fill="white"/>
</clipPath>
</defs>
</svg>
