<svg width="24" height="24" viewBox="0 0 24 24" fill="none" xmlns="http://www.w3.org/2000/svg">
<g clip-path="url(#clip0_2_169)">
<path d="M9.42859 6.85715V9.42858" stroke="#4147D5" stroke-width="1.71429" stroke-linecap="round" stroke-linejoin="round"/>
<path d="M14.5714 6.85715V9.42858" stroke="#4147D5" stroke-width="1.71429" stroke-linecap="round" stroke-linejoin="round"/>
<path d="M9.42859 12.8571C9.42859 15.1371 14.5714 15.1371 14.5714 12.8571" stroke="#4147D5" stroke-width="1.71429" stroke-linecap="round" stroke-linejoin="round"/>
<path d="M5.14288 12V7.49146C5.15627 6.60523 5.3444 5.73036 5.69649 4.91695C6.04857 4.10355 6.55772 3.36763 7.19471 2.75132C7.83171 2.13504 8.58405 1.65049 9.40864 1.32545C10.2332 1.00042 11.1138 0.841289 12 0.857177C12.8862 0.841289 13.7668 1.00042 14.5914 1.32545C15.416 1.65049 16.1683 2.13504 16.8053 2.75132C17.4424 3.36763 17.9515 4.10355 18.3036 4.91695C18.6556 5.73036 18.8438 6.60523 18.8572 7.49146V12" stroke="#4147D5" stroke-width="1.71429" stroke-linecap="round" stroke-linejoin="round"/>
<path d="M2.5714 9.42862H4.28569C4.51302 9.42862 4.73104 9.51893 4.89177 9.67968C5.05252 9.84043 5.14283 10.0584 5.14283 10.2858V15.4286C5.14283 15.656 5.05252 15.874 4.89177 16.0347C4.73104 16.1955 4.51302 16.2858 4.28569 16.2858H2.5714C2.11674 16.2858 1.68071 16.1051 1.35922 15.7837C1.03773 15.4622 0.857117 15.0261 0.857117 14.5715V11.1429C0.857117 10.6882 1.03773 10.2522 1.35922 9.93072C1.68071 9.60924 2.11674 9.42862 2.5714 9.42862Z" fill="#D7E0FF"/>
<path d="M21.4285 16.2858H19.7143C19.4869 16.2858 19.2689 16.1955 19.1081 16.0347C18.9475 15.874 18.8571 15.656 18.8571 15.4286V10.2858C18.8571 10.0584 18.9475 9.84041 19.1081 9.67968C19.2689 9.51893 19.4869 9.42862 19.7143 9.42862H21.4285C21.8832 9.42862 22.3193 9.60924 22.6407 9.93072C22.9621 10.2522 23.1428 10.6882 23.1428 11.1429V14.5715C23.1428 15.0261 22.9621 15.4622 22.6407 15.7837C22.3193 16.1051 21.8832 16.2858 21.4285 16.2858Z" fill="#D7E0FF"/>
<path d="M15.4286 21C16.3379 21 17.2099 20.6388 17.8529 19.9958C18.496 19.3529 18.8572 18.4809 18.8572 17.5714V13.7143" stroke="#4147D5" stroke-width="1.71429" stroke-linecap="round" stroke-linejoin="round"/>
<path d="M15.4286 21C15.4286 21.5685 15.2028 22.1134 14.8009 22.5153C14.3991 22.9171 13.854 23.1429 13.2857 23.1429H10.7143C10.1459 23.1429 9.60091 22.9171 9.19905 22.5153C8.79718 22.1134 8.57141 21.5685 8.57141 21C8.57141 20.4317 8.79718 19.8867 9.19905 19.4847C9.60091 19.0829 10.1459 18.8571 10.7143 18.8571H13.2857C13.854 18.8571 14.3991 19.0829 14.8009 19.4847C15.2028 19.8867 15.4286 20.4317 15.4286 21Z" fill="#D7E0FF"/>
<path d="M2.5714 9.42857H4.28569C4.51302 9.42857 4.73104 9.51888 4.89177 9.67963C5.05252 9.84036 5.14283 10.0584 5.14283 10.2857V15.4286C5.14283 15.6559 5.05252 15.8739 4.89177 16.0347C4.73104 16.1954 4.51302 16.2857 4.28569 16.2857H2.5714C2.11674 16.2857 1.68071 16.1051 1.35922 15.7836C1.03773 15.4621 0.857117 15.0261 0.857117 14.5714V11.1429C0.857117 10.6882 1.03773 10.2522 1.35922 9.93067C1.68071 9.60919 2.11674 9.42857 2.5714 9.42857Z" stroke="#4147D5" stroke-width="1.71429" stroke-linecap="round" stroke-linejoin="round"/>
<path d="M21.4285 16.2857H19.7143C19.4869 16.2857 19.2689 16.1954 19.1081 16.0347C18.9475 15.8739 18.8571 15.6559 18.8571 15.4286V10.2857C18.8571 10.0584 18.9475 9.84036 19.1081 9.67963C19.2689 9.51888 19.4869 9.42857 19.7143 9.42857H21.4285C21.8832 9.42857 22.3193 9.60919 22.6407 9.93067C22.9621 10.2522 23.1428 10.6882 23.1428 11.1429V14.5714C23.1428 15.0261 22.9621 15.4621 22.6407 15.7836C22.3193 16.1051 21.8832 16.2857 21.4285 16.2857Z" stroke="#4147D5" stroke-width="1.71429" stroke-linecap="round" stroke-linejoin="round"/>
<path d="M15.4286 21C15.4286 21.5683 15.2028 22.1134 14.8009 22.5153C14.3991 22.9171 13.854 23.1429 13.2857 23.1429H10.7143C10.1459 23.1429 9.60091 22.9171 9.19905 22.5153C8.79718 22.1134 8.57141 21.5683 8.57141 21C8.57141 20.4317 8.79718 19.8866 9.19905 19.4847C9.60091 19.0829 10.1459 18.8571 10.7143 18.8571H13.2857C13.854 18.8571 14.3991 19.0829 14.8009 19.4847C15.2028 19.8866 15.4286 20.4317 15.4286 21Z" stroke="#4147D5" stroke-width="1.71429" stroke-linecap="round" stroke-linejoin="round"/>
</g>
<defs>
<clipPath id="clip0_2_169">
<rect width="24" height="24" fill="white"/>
</clipPath>
</defs>
</svg>
