<svg width="24" height="24" viewBox="0 0 24 24" fill="none" xmlns="http://www.w3.org/2000/svg">
<path d="M10.5431 0.951468C10.4397 0.889721 10.3216 0.857117 10.2011 0.857117C10.0807 0.857117 9.96259 0.889721 9.85922 0.951468C9.77395 1.01902 9.71642 1.1155 9.69751 1.22263C9.67862 1.32976 9.69965 1.4401 9.75663 1.53276C11.8595 5.17437 12.3041 10.1324 9.43179 12.8679C8.3267 11.9393 7.44936 10.7695 6.86727 9.44859C5.8051 10.0385 4.92483 10.9081 4.32202 11.963C3.71921 13.018 3.4169 14.2178 3.44791 15.4325C3.49128 16.5032 3.74837 17.5544 4.20406 18.5244C4.65975 19.4943 5.30484 20.3631 6.10136 21.08C6.89789 21.7969 7.82976 22.3472 8.84213 22.6987C9.85452 23.0499 10.9269 23.1953 11.9963 23.126C17.5015 23.126 20.3566 19.7067 20.5447 15.4325C20.767 10.3034 17.1254 3.99471 10.5431 0.951468Z" fill="#D7E0FF"/>
<path d="M10.5431 0.951468C10.4397 0.889721 10.3216 0.857117 10.2011 0.857117C10.0807 0.857117 9.96259 0.889721 9.85922 0.951468C9.77395 1.01902 9.71642 1.1155 9.69751 1.22263C9.67862 1.32976 9.69965 1.4401 9.75663 1.53276C11.8595 5.17437 12.3041 10.1324 9.43179 12.8679C8.3267 11.9393 7.44936 10.7695 6.86727 9.44859C5.8051 10.0385 4.92483 10.9081 4.32202 11.963C3.71921 13.018 3.4169 14.2178 3.44791 15.4325C3.49128 16.5032 3.74837 17.5544 4.20406 18.5244C4.65975 19.4943 5.30484 20.3631 6.10136 21.08C6.89789 21.7969 7.82976 22.3472 8.84213 22.6987C9.85452 23.0499 10.9269 23.1953 11.9963 23.126C17.5015 23.126 20.3566 19.7067 20.5447 15.4325C20.767 10.3034 17.1254 3.99471 10.5431 0.951468Z" stroke="#4147D5" stroke-width="1.71429" stroke-linecap="round" stroke-linejoin="round"/>
</svg>
