<svg width="24" height="25" viewBox="0 0 24 25" fill="none" xmlns="http://www.w3.org/2000/svg">
<path d="M6.93994 5.47756C6.93968 6.008 6.72871 6.5166 6.35345 6.89148C5.97819 7.26637 5.46937 7.47683 4.93894 7.47656C4.40851 7.4763 3.89991 7.26533 3.52502 6.89007C3.15014 6.51481 2.93968 6.006 2.93994 5.47556C2.94021 4.94513 3.15117 4.43653 3.52644 4.06164C3.9017 3.68676 4.41051 3.4763 4.94094 3.47656C5.47137 3.47683 5.97998 3.6878 6.35486 4.06306C6.72975 4.43832 6.94021 4.94713 6.93994 5.47756ZM6.99994 8.95756H2.99994V21.4776H6.99994V8.95756ZM13.3199 8.95756H9.33994V21.4776H13.2799V14.9076C13.2799 11.2476 18.0499 10.9076 18.0499 14.9076V21.4776H21.9999V13.5476C21.9999 7.37756 14.9399 7.60756 13.2799 10.6376L13.3199 8.95756Z" fill="#050038"/>
</svg>
