<svg width="24" height="25" viewBox="0 0 24 25" fill="none" xmlns="http://www.w3.org/2000/svg">
<path d="M22.1618 6.13347C21.3984 6.47116 20.5888 6.69294 19.7598 6.79147C20.6336 6.2689 21.2875 5.44648 21.5998 4.47747C20.7798 4.96547 19.8808 5.30747 18.9438 5.49247C18.3144 4.81904 17.4802 4.37243 16.5708 4.22205C15.6614 4.07167 14.7277 4.22596 13.9151 4.66092C13.1024 5.09588 12.4562 5.78715 12.0769 6.62726C11.6976 7.46737 11.6066 8.40925 11.8178 9.30647C10.1549 9.22312 8.52814 8.79099 7.0431 8.03813C5.55805 7.28527 4.24794 6.22851 3.19781 4.93647C2.8261 5.57492 2.63076 6.30069 2.63181 7.03947C2.63181 8.48947 3.36981 9.77047 4.49181 10.5205C3.82782 10.4996 3.17844 10.3202 2.59781 9.99747V10.0495C2.59801 11.0152 2.93218 11.9511 3.54366 12.6985C4.15513 13.446 5.00629 13.9589 5.95281 14.1505C5.33642 14.3175 4.69012 14.3421 4.06281 14.2225C4.32968 15.0537 4.84982 15.7807 5.5504 16.3016C6.25099 16.8225 7.09694 17.1113 7.96981 17.1275C7.10229 17.8088 6.10899 18.3124 5.04669 18.6096C3.98439 18.9068 2.87394 18.9917 1.77881 18.8595C3.69051 20.0889 5.9159 20.7416 8.18881 20.7395C15.8818 20.7395 20.0888 14.3665 20.0888 8.83947C20.0888 8.65947 20.0838 8.47747 20.0758 8.29947C20.8947 7.70763 21.6014 6.97449 22.1628 6.13447L22.1618 6.13347Z" fill="#050038"/>
</svg>
